{
  "accessors": [
    {
      "bufferView": 2,
      "componentType": 5126,
      "count": 416,
      "max": [
        0.04709000140428543,
        0.04723000153899193,
        0.06177999824285507
      ],
      "min": [
        -0.04709000140428543,
        -0.04723000153899193,
        -0.04058000072836876
      ],
      "type": "VEC3"
    },
    {
      "bufferView": 2,
      "byteOffset": 4992,
      "componentType": 5126,
      "count": 416,
      "max": [
        0.9874783158302307,
        0.9926581978797913,
        0.9957785606384277
      ],
      "min": [
        -0.9882043600082397,
        -0.9839983582496643,
        -1.0
      ],
      "type": "VEC3"
    },
    {
      "bufferView": 1,
      "componentType": 5126,
      "count": 416,
      "max": [
        0.8344600200653076,
        0.9573000073432922
      ],
      "min": [
        0.7771400213241577,
        0.9489099979400635
      ],
      "type": "VEC2"
    },
    {
      "bufferView": 0,
      "componentType": 5125,
      "count": 486,
      "type": "SCALAR"
    }
  ],
  "asset": {
    "extras": {
      "author": "Feyfolken-Km (https://sketchfab.com/Feyfolken-Km)",
      "license": "CC-BY-4.0 (http://creativecommons.org/licenses/by/4.0/)",
      "source": "https://sketchfab.com/3d-models/asset-by-feyfolken-food-props-apple-304381475f2e400ebbcabfe14eac8b34",
      "title": "Asset by Feyfolken | Food Props | Apple"
    },
    "generator": "Sketchfab-12.66.0",
    "version": "2.0"
  },
  "bufferViews": [
    {
      "buffer": 0,
      "byteLength": 1944,
      "name": "floatBufferViews",
      "target": 34963
    },
    {
      "buffer": 0,
      "byteLength": 3328,
      "byteOffset": 1944,
      "byteStride": 8,
      "name": "floatBufferViews",
      "target": 34962
    },
    {
      "buffer": 0,
      "byteLength": 9984,
      "byteOffset": 5272,
      "byteStride": 12,
      "name": "floatBufferViews",
      "target": 34962
    }
  ],
  "buffers": [
    {
      "byteLength": 15256,
      "uri": "scene.bin"
    }
  ],
  "images": [
    {
      "uri": "textures/Apple_baseColor.png"
    }
  ],
  "materials": [
    {
      "doubleSided": true,
      "name": "Apple",
      "pbrMetallicRoughness": {
        "baseColorTexture": {
          "index": 0
        },
        "metallicFactor": 0.01,
        "roughnessFactor": 0.99
      }
    }
  ],
  "meshes": [
    {
      "name": "Apple_0",
      "primitives": [
        {
          "attributes": {
            "NORMAL": 1,
            "POSITION": 0,
            "TEXCOORD_0": 2
          },
          "indices": 3,
          "material": 0,
          "mode": 4
        }
      ]
    }
  ],
  "nodes": [
    {
      "children": [
        1
      ],
      "matrix": [
        1.0,
        0.0,
        0.0,
        0.0,
        0.0,
        2.220446049250313e-16,
        -1.0,
        0.0,
        0.0,
        1.0,
        2.220446049250313e-16,
        0.0,
        0.0,
        0.0,
        0.0,
        1.0
      ],
      "name": "Sketchfab_model"
    },
    {
      "children": [
        2
      ],
      "name": "Root"
    },
    {
      "children": [
        3
      ],
      "name": "Apple"
    },
    {
      "mesh": 0,
      "name": "Apple_0"
    }
  ],
  "samplers": [
    {
      "magFilter": 9729,
      "minFilter": 9987,
      "wrapS": 10497,
      "wrapT": 10497
    }
  ],
  "scene": 0,
  "scenes": [
    {
      "name": "Sketchfab_Scene",
      "nodes": [
        0
      ]
    }
  ],
  "textures": [
    {
      "sampler": 0,
      "source": 0
    }
  ]
}
